  0
SECTION
  2
HEADER
  9
$ACADVER
  1
AC1009
  9
$EXTMIN
 10
0.0
 20
0.0
 30
0.0
  9
$EXTMAX
 10
1000.0
 20
1000.0
 30
0.0
  9
$FILLMODE
 70
 0
  9
$SPLFRAME
 70
 1
  0
ENDSEC
  0
SECTION
  2
TABLES
  0
TABLE
  2
LAYER
 70
1
  0
LAYER
  2
0
 70
     0
 62
     7
  6
CONTINUOUS
  0
ENDTAB
  0
ENDSEC
  0
SECTION
  2
ENTITIES
  0
POLYLINE
  8
0
 62
     0
 66
     1
 10
0
 20
0
 30
0.0
 70
     1
 40
0
 41
0
  0
VERTEX
  8
0
 10
47.2251
 20
20.8675
 30
0.0
 40
0
 41
0
  0
VERTEX
  8
0
 10
53.8238
 20
25.3907
 30
0.0
 40
0
 41
0
  0
VERTEX
  8
0
 10
69.9149
 20
1.91667
 30
0.0
 40
0
 41
0
  0
VERTEX
  8
0
 10
37.4907
 20
1.91667
 30
0.0
 40
0
 41
0
  0
VERTEX
  8
0
 10
37.4907
 20
9.91667
 30
0.0
 40
0
 41
0
  0
VERTEX
  8
0
 10
33.7907
 20
9.91667
 30
0.0
 40
0
 41
0
  0
VERTEX
  8
0
 10
33.7907
 20
1.91667
 30
0.0
 40
0
 41
0
  0
VERTEX
  8
0
 10
1.36648
 20
1.91667
 30
0.0
 40
0
 41
0
  0
VERTEX
  8
0
 10
17.4576
 20
25.3907
 30
0.0
 40
0
 41
0
  0
VERTEX
  8
0
 10
24.0561
 20
20.8675
 30
0.0
 40
0
 41
0
  0
VERTEX
  8
0
 10
26.1481
 20
23.9194
 30
0.0
 40
0
 41
0
  0
VERTEX
  8
0
 10
19.5496
 20
28.4426
 30
0.0
 40
0
 41
0
  0
VERTEX
  8
0
 10
35.6407
 20
51.9167
 30
0.0
 40
0
 41
0
  0
VERTEX
  8
0
 10
51.7318
 20
28.4426
 30
0.0
 40
0
 41
0
  0
VERTEX
  8
0
 10
45.1332
 20
23.9194
 30
0.0
 40
0
 41
0
  0
VERTEX
  8
0
 10
47.2251
 20
20.8675
 30
0.0
 40
0
 41
0
  0
SEQEND
 8
0
  0
POLYLINE
  8
0
 62
     0
 66
     1
 10
0
 20
0
 30
0.0
 70
     1
 40
0
 41
0
  0
VERTEX
  8
0
 10
60.5583
 20
32.2458
 30
0.0
 40
0
 41
0
  0
VERTEX
  8
0
 10
53.9599
 20
27.7226
 30
0.0
 40
0
 41
0
  0
VERTEX
  8
0
 10
37.8688
 20
51.1967
 30
0.0
 40
0
 41
0
  0
VERTEX
  8
0
 10
70.2929
 20
51.1967
 30
0.0
 40
0
 41
0
  0
VERTEX
  8
0
 10
70.2929
 20
43.1967
 30
0.0
 40
0
 41
0
  0
VERTEX
  8
0
 10
73.9929
 20
43.1967
 30
0.0
 40
0
 41
0
  0
VERTEX
  8
0
 10
73.9929
 20
51.1967
 30
0.0
 40
0
 41
0
  0
VERTEX
  8
0
 10
106.417
 20
51.1967
 30
0.0
 40
0
 41
0
  0
VERTEX
  8
0
 10
90.326
 20
27.7226
 30
0.0
 40
0
 41
0
  0
VERTEX
  8
0
 10
83.7275
 20
32.2458
 30
0.0
 40
0
 41
0
  0
VERTEX
  8
0
 10
81.6354
 20
29.1939
 30
0.0
 40
0
 41
0
  0
VERTEX
  8
0
 10
88.234
 20
24.6707
 30
0.0
 40
0
 41
0
  0
VERTEX
  8
0
 10
72.1429
 20
1.19667
 30
0.0
 40
0
 41
0
  0
VERTEX
  8
0
 10
56.0518
 20
24.6707
 30
0.0
 40
0
 41
0
  0
VERTEX
  8
0
 10
62.6504
 20
29.1939
 30
0.0
 40
0
 41
0
  0
VERTEX
  8
0
 10
60.5583
 20
32.2458
 30
0.0
 40
0
 41
0
  0
SEQEND
 8
0
  0
POLYLINE
  8
0
 62
     0
 66
     1
 10
0
 20
0
 30
0.0
 70
     1
 40
0
 41
0
  0
VERTEX
  8
0
 10
129.957
 20
32.2458
 30
0.0
 40
0
 41
0
  0
VERTEX
  8
0
 10
123.358
 20
27.7226
 30
0.0
 40
0
 41
0
  0
VERTEX
  8
0
 10
107.267
 20
51.1967
 30
0.0
 40
0
 41
0
  0
VERTEX
  8
0
 10
139.692
 20
51.1967
 30
0.0
 40
0
 41
0
  0
VERTEX
  8
0
 10
139.692
 20
43.1967
 30
0.0
 40
0
 41
0
  0
VERTEX
  8
0
 10
143.392
 20
43.1967
 30
0.0
 40
0
 41
0
  0
VERTEX
  8
0
 10
143.392
 20
51.1967
 30
0.0
 40
0
 41
0
  0
VERTEX
  8
0
 10
175.815
 20
51.1967
 30
0.0
 40
0
 41
0
  0
VERTEX
  8
0
 10
159.724
 20
27.7226
 30
0.0
 40
0
 41
0
  0
VERTEX
  8
0
 10
153.126
 20
32.2458
 30
0.0
 40
0
 41
0
  0
VERTEX
  8
0
 10
151.033
 20
29.1939
 30
0.0
 40
0
 41
0
  0
VERTEX
  8
0
 10
157.632
 20
24.6707
 30
0.0
 40
0
 41
0
  0
VERTEX
  8
0
 10
141.542
 20
1.19667
 30
0.0
 40
0
 41
0
  0
VERTEX
  8
0
 10
125.45
 20
24.6707
 30
0.0
 40
0
 41
0
  0
VERTEX
  8
0
 10
132.049
 20
29.1939
 30
0.0
 40
0
 41
0
  0
VERTEX
  8
0
 10
129.957
 20
32.2458
 30
0.0
 40
0
 41
0
  0
SEQEND
 8
0
  0
POLYLINE
  8
0
 62
     0
 66
     1
 10
0
 20
0
 30
0.0
 70
     1
 40
0
 41
0
  0
VERTEX
  8
0
 10
199.354
 20
32.2458
 30
0.0
 40
0
 41
0
  0
VERTEX
  8
0
 10
192.757
 20
27.7226
 30
0.0
 40
0
 41
0
  0
VERTEX
  8
0
 10
176.665
 20
51.1967
 30
0.0
 40
0
 41
0
  0
VERTEX
  8
0
 10
209.089
 20
51.1967
 30
0.0
 40
0
 41
0
  0
VERTEX
  8
0
 10
209.089
 20
43.1967
 30
0.0
 40
0
 41
0
  0
VERTEX
  8
0
 10
212.789
 20
43.1967
 30
0.0
 40
0
 41
0
  0
VERTEX
  8
0
 10
212.789
 20
51.1967
 30
0.0
 40
0
 41
0
  0
VERTEX
  8
0
 10
245.214
 20
51.1967
 30
0.0
 40
0
 41
0
  0
VERTEX
  8
0
 10
229.122
 20
27.7226
 30
0.0
 40
0
 41
0
  0
VERTEX
  8
0
 10
222.524
 20
32.2458
 30
0.0
 40
0
 41
0
  0
VERTEX
  8
0
 10
220.432
 20
29.1939
 30
0.0
 40
0
 41
0
  0
VERTEX
  8
0
 10
227.031
 20
24.6707
 30
0.0
 40
0
 41
0
  0
VERTEX
  8
0
 10
210.939
 20
1.19667
 30
0.0
 40
0
 41
0
  0
VERTEX
  8
0
 10
194.849
 20
24.6707
 30
0.0
 40
0
 41
0
  0
VERTEX
  8
0
 10
201.447
 20
29.1939
 30
0.0
 40
0
 41
0
  0
VERTEX
  8
0
 10
199.354
 20
32.2458
 30
0.0
 40
0
 41
0
  0
SEQEND
 8
0
  0
POLYLINE
  8
0
 62
     0
 66
     1
 10
0
 20
0
 30
0.0
 70
     1
 40
0
 41
0
  0
VERTEX
  8
0
 10
117.998
 20
18.9578
 30
0.0
 40
0
 41
0
  0
VERTEX
  8
0
 10
124.596
 20
23.481
 30
0.0
 40
0
 41
0
  0
VERTEX
  8
0
 10
140.688
 20
0.00689019
 30
0.0
 40
0
 41
0
  0
VERTEX
  8
0
 10
108.263
 20
0.00689019
 30
0.0
 40
0
 41
0
  0
VERTEX
  8
0
 10
108.263
 20
8.00689
 30
0.0
 40
0
 41
0
  0
VERTEX
  8
0
 10
104.563
 20
8.00689
 30
0.0
 40
0
 41
0
  0
VERTEX
  8
0
 10
104.563
 20
0.00689019
 30
0.0
 40
0
 41
0
  0
VERTEX
  8
0
 10
72.1392
 20
0.00689019
 30
0.0
 40
0
 41
0
  0
VERTEX
  8
0
 10
88.2301
 20
23.481
 30
0.0
 40
0
 41
0
  0
VERTEX
  8
0
 10
94.8287
 20
18.9578
 30
0.0
 40
0
 41
0
  0
VERTEX
  8
0
 10
96.9207
 20
22.0096
 30
0.0
 40
0
 41
0
  0
VERTEX
  8
0
 10
90.3222
 20
26.5328
 30
0.0
 40
0
 41
0
  0
VERTEX
  8
0
 10
106.413
 20
50.0069
 30
0.0
 40
0
 41
0
  0
VERTEX
  8
0
 10
122.504
 20
26.5328
 30
0.0
 40
0
 41
0
  0
VERTEX
  8
0
 10
115.906
 20
22.0096
 30
0.0
 40
0
 41
0
  0
VERTEX
  8
0
 10
117.998
 20
18.9578
 30
0.0
 40
0
 41
0
  0
SEQEND
 8
0
  0
POLYLINE
  8
0
 62
     0
 66
     1
 10
0
 20
0
 30
0.0
 70
     1
 40
0
 41
0
  0
VERTEX
  8
0
 10
185.096
 20
20.5944
 30
0.0
 40
0
 41
0
  0
VERTEX
  8
0
 10
192.024
 20
24.5944
 30
0.0
 40
0
 41
0
  0
VERTEX
  8
0
 10
205.533
 20
1.19667
 30
0.0
 40
0
 41
0
  0
VERTEX
  8
0
 10
178.515
 20
1.19667
 30
0.0
 40
0
 41
0
  0
VERTEX
  8
0
 10
178.515
 20
9.19667
 30
0.0
 40
0
 41
0
  0
VERTEX
  8
0
 10
174.815
 20
9.19667
 30
0.0
 40
0
 41
0
  0
VERTEX
  8
0
 10
174.815
 20
1.19667
 30
0.0
 40
0
 41
0
  0
VERTEX
  8
0
 10
147.797
 20
1.19667
 30
0.0
 40
0
 41
0
  0
VERTEX
  8
0
 10
161.307
 20
24.5944
 30
0.0
 40
0
 41
0
  0
VERTEX
  8
0
 10
168.235
 20
20.5944
 30
0.0
 40
0
 41
0
  0
VERTEX
  8
0
 10
170.085
 20
23.7989
 30
0.0
 40
0
 41
0
  0
VERTEX
  8
0
 10
163.157
 20
27.7989
 30
0.0
 40
0
 41
0
  0
VERTEX
  8
0
 10
176.665
 20
51.1967
 30
0.0
 40
0
 41
0
  0
VERTEX
  8
0
 10
190.174
 20
27.7989
 30
0.0
 40
0
 41
0
  0
VERTEX
  8
0
 10
183.246
 20
23.7989
 30
0.0
 40
0
 41
0
  0
VERTEX
  8
0
 10
185.096
 20
20.5944
 30
0.0
 40
0
 41
0
  0
SEQEND
 8
0
  0
POLYLINE
  8
0
 62
     0
 66
     1
 10
0
 20
0
 30
0.0
 70
     1
 40
0
 41
0
  0
VERTEX
  8
0
 10
255.011
 20
21.3144
 30
0.0
 40
0
 41
0
  0
VERTEX
  8
0
 10
261.939
 20
25.3144
 30
0.0
 40
0
 41
0
  0
VERTEX
  8
0
 10
275.447
 20
1.91667
 30
0.0
 40
0
 41
0
  0
VERTEX
  8
0
 10
248.431
 20
1.91667
 30
0.0
 40
0
 41
0
  0
VERTEX
  8
0
 10
248.431
 20
9.91667
 30
0.0
 40
0
 41
0
  0
VERTEX
  8
0
 10
244.731
 20
9.91667
 30
0.0
 40
0
 41
0
  0
VERTEX
  8
0
 10
244.731
 20
1.91667
 30
0.0
 40
0
 41
0
  0
VERTEX
  8
0
 10
217.712
 20
1.91667
 30
0.0
 40
0
 41
0
  0
VERTEX
  8
0
 10
231.221
 20
25.3144
 30
0.0
 40
0
 41
0
  0
VERTEX
  8
0
 10
238.15
 20
21.3144
 30
0.0
 40
0
 41
0
  0
VERTEX
  8
0
 10
240
 20
24.5189
 30
0.0
 40
0
 41
0
  0
VERTEX
  8
0
 10
233.071
 20
28.5189
 30
0.0
 40
0
 41
0
  0
VERTEX
  8
0
 10
246.581
 20
51.9167
 30
0.0
 40
0
 41
0
  0
VERTEX
  8
0
 10
260.089
 20
28.5189
 30
0.0
 40
0
 41
0
  0
VERTEX
  8
0
 10
253.161
 20
24.5189
 30
0.0
 40
0
 41
0
  0
VERTEX
  8
0
 10
255.011
 20
21.3144
 30
0.0
 40
0
 41
0
  0
SEQEND
 8
0
  0
POLYLINE
  8
0
 62
     0
 66
     1
 10
0
 20
0
 30
0.0
 70
     1
 40
0
 41
0
  0
VERTEX
  8
0
 10
267.433
 20
31.7989
 30
0.0
 40
0
 41
0
  0
VERTEX
  8
0
 10
260.504
 20
27.7989
 30
0.0
 40
0
 41
0
  0
VERTEX
  8
0
 10
246.996
 20
51.1967
 30
0.0
 40
0
 41
0
  0
VERTEX
  8
0
 10
274.014
 20
51.1967
 30
0.0
 40
0
 41
0
  0
VERTEX
  8
0
 10
274.014
 20
43.1967
 30
0.0
 40
0
 41
0
  0
VERTEX
  8
0
 10
277.714
 20
43.1967
 30
0.0
 40
0
 41
0
  0
VERTEX
  8
0
 10
277.714
 20
51.1967
 30
0.0
 40
0
 41
0
  0
VERTEX
  8
0
 10
304.731
 20
51.1967
 30
0.0
 40
0
 41
0
  0
VERTEX
  8
0
 10
291.222
 20
27.7989
 30
0.0
 40
0
 41
0
  0
VERTEX
  8
0
 10
284.294
 20
31.7989
 30
0.0
 40
0
 41
0
  0
VERTEX
  8
0
 10
282.444
 20
28.5944
 30
0.0
 40
0
 41
0
  0
VERTEX
  8
0
 10
289.372
 20
24.5944
 30
0.0
 40
0
 41
0
  0
VERTEX
  8
0
 10
275.864
 20
1.19667
 30
0.0
 40
0
 41
0
  0
VERTEX
  8
0
 10
262.354
 20
24.5944
 30
0.0
 40
0
 41
0
  0
VERTEX
  8
0
 10
269.283
 20
28.5944
 30
0.0
 40
0
 41
0
  0
VERTEX
  8
0
 10
267.433
 20
31.7989
 30
0.0
 40
0
 41
0
  0
SEQEND
 8
0
  0
POLYLINE
  8
0
 62
     0
 66
     1
 10
0
 20
0
 30
0.0
 70
     1
 40
0
 41
0
  0
VERTEX
  8
0
 10
325.978
 20
31.7989
 30
0.0
 40
0
 41
0
  0
VERTEX
  8
0
 10
319.049
 20
27.7989
 30
0.0
 40
0
 41
0
  0
VERTEX
  8
0
 10
305.54
 20
51.1967
 30
0.0
 40
0
 41
0
  0
VERTEX
  8
0
 10
332.558
 20
51.1967
 30
0.0
 40
0
 41
0
  0
VERTEX
  8
0
 10
332.558
 20
43.1967
 30
0.0
 40
0
 41
0
  0
VERTEX
  8
0
 10
336.258
 20
43.1967
 30
0.0
 40
0
 41
0
  0
VERTEX
  8
0
 10
336.258
 20
51.1967
 30
0.0
 40
0
 41
0
  0
VERTEX
  8
0
 10
363.275
 20
51.1967
 30
0.0
 40
0
 41
0
  0
VERTEX
  8
0
 10
349.767
 20
27.7989
 30
0.0
 40
0
 41
0
  0
VERTEX
  8
0
 10
342.839
 20
31.7989
 30
0.0
 40
0
 41
0
  0
VERTEX
  8
0
 10
340.989
 20
28.5944
 30
0.0
 40
0
 41
0
  0
VERTEX
  8
0
 10
347.917
 20
24.5944
 30
0.0
 40
0
 41
0
  0
VERTEX
  8
0
 10
334.408
 20
1.19667
 30
0.0
 40
0
 41
0
  0
VERTEX
  8
0
 10
320.899
 20
24.5944
 30
0.0
 40
0
 41
0
  0
VERTEX
  8
0
 10
327.828
 20
28.5944
 30
0.0
 40
0
 41
0
  0
VERTEX
  8
0
 10
325.978
 20
31.7989
 30
0.0
 40
0
 41
0
  0
SEQEND
 8
0
  0
POLYLINE
  8
0
 62
     0
 66
     1
 10
0
 20
0
 30
0.0
 70
     1
 40
0
 41
0
  0
VERTEX
  8
0
 10
313.971
 20
20.5944
 30
0.0
 40
0
 41
0
  0
VERTEX
  8
0
 10
320.899
 20
24.5944
 30
0.0
 40
0
 41
0
  0
VERTEX
  8
0
 10
334.408
 20
1.19667
 30
0.0
 40
0
 41
0
  0
VERTEX
  8
0
 10
307.39
 20
1.19667
 30
0.0
 40
0
 41
0
  0
VERTEX
  8
0
 10
307.39
 20
9.19667
 30
0.0
 40
0
 41
0
  0
VERTEX
  8
0
 10
303.69
 20
9.19667
 30
0.0
 40
0
 41
0
  0
VERTEX
  8
0
 10
303.69
 20
1.19667
 30
0.0
 40
0
 41
0
  0
VERTEX
  8
0
 10
276.672
 20
1.19667
 30
0.0
 40
0
 41
0
  0
VERTEX
  8
0
 10
290.182
 20
24.5944
 30
0.0
 40
0
 41
0
  0
VERTEX
  8
0
 10
297.11
 20
20.5944
 30
0.0
 40
0
 41
0
  0
VERTEX
  8
0
 10
298.96
 20
23.7989
 30
0.0
 40
0
 41
0
  0
VERTEX
  8
0
 10
292.032
 20
27.7989
 30
0.0
 40
0
 41
0
  0
VERTEX
  8
0
 10
305.54
 20
51.1967
 30
0.0
 40
0
 41
0
  0
VERTEX
  8
0
 10
319.049
 20
27.7989
 30
0.0
 40
0
 41
0
  0
VERTEX
  8
0
 10
312.121
 20
23.7989
 30
0.0
 40
0
 41
0
  0
VERTEX
  8
0
 10
313.971
 20
20.5944
 30
0.0
 40
0
 41
0
  0
SEQEND
 8
0
  0
POLYLINE
  8
0
 62
     0
 66
     1
 10
0
 20
0
 30
0.0
 70
     1
 40
0
 41
0
  0
VERTEX
  8
0
 10
372.953
 20
21.3144
 30
0.0
 40
0
 41
0
  0
VERTEX
  8
0
 10
379.881
 20
25.3144
 30
0.0
 40
0
 41
0
  0
VERTEX
  8
0
 10
393.39
 20
1.91667
 30
0.0
 40
0
 41
0
  0
VERTEX
  8
0
 10
366.372
 20
1.91667
 30
0.0
 40
0
 41
0
  0
VERTEX
  8
0
 10
366.372
 20
9.91667
 30
0.0
 40
0
 41
0
  0
VERTEX
  8
0
 10
362.672
 20
9.91667
 30
0.0
 40
0
 41
0
  0
VERTEX
  8
0
 10
362.672
 20
1.91667
 30
0.0
 40
0
 41
0
  0
VERTEX
  8
0
 10
335.654
 20
1.91667
 30
0.0
 40
0
 41
0
  0
VERTEX
  8
0
 10
349.164
 20
25.3144
 30
0.0
 40
0
 41
0
  0
VERTEX
  8
0
 10
356.092
 20
21.3144
 30
0.0
 40
0
 41
0
  0
VERTEX
  8
0
 10
357.942
 20
24.5189
 30
0.0
 40
0
 41
0
  0
VERTEX
  8
0
 10
351.014
 20
28.5189
 30
0.0
 40
0
 41
0
  0
VERTEX
  8
0
 10
364.522
 20
51.9167
 30
0.0
 40
0
 41
0
  0
VERTEX
  8
0
 10
378.031
 20
28.5189
 30
0.0
 40
0
 41
0
  0
VERTEX
  8
0
 10
371.103
 20
24.5189
 30
0.0
 40
0
 41
0
  0
VERTEX
  8
0
 10
372.953
 20
21.3144
 30
0.0
 40
0
 41
0
  0
SEQEND
 8
0
  0
POLYLINE
  8
0
 62
     0
 66
     1
 10
0
 20
0
 30
0.0
 70
     1
 40
0
 41
0
  0
VERTEX
  8
0
 10
385.375
 20
31.7989
 30
0.0
 40
0
 41
0
  0
VERTEX
  8
0
 10
378.447
 20
27.7989
 30
0.0
 40
0
 41
0
  0
VERTEX
  8
0
 10
364.938
 20
51.1967
 30
0.0
 40
0
 41
0
  0
VERTEX
  8
0
 10
391.956
 20
51.1967
 30
0.0
 40
0
 41
0
  0
VERTEX
  8
0
 10
391.956
 20
43.1967
 30
0.0
 40
0
 41
0
  0
VERTEX
  8
0
 10
395.656
 20
43.1967
 30
0.0
 40
0
 41
0
  0
VERTEX
  8
0
 10
395.656
 20
51.1967
 30
0.0
 40
0
 41
0
  0
VERTEX
  8
0
 10
422.674
 20
51.1967
 30
0.0
 40
0
 41
0
  0
VERTEX
  8
0
 10
409.164
 20
27.7989
 30
0.0
 40
0
 41
0
  0
VERTEX
  8
0
 10
402.236
 20
31.7989
 30
0.0
 40
0
 41
0
  0
VERTEX
  8
0
 10
400.386
 20
28.5944
 30
0.0
 40
0
 41
0
  0
VERTEX
  8
0
 10
407.314
 20
24.5944
 30
0.0
 40
0
 41
0
  0
VERTEX
  8
0
 10
393.806
 20
1.19667
 30
0.0
 40
0
 41
0
  0
VERTEX
  8
0
 10
380.297
 20
24.5944
 30
0.0
 40
0
 41
0
  0
VERTEX
  8
0
 10
387.225
 20
28.5944
 30
0.0
 40
0
 41
0
  0
VERTEX
  8
0
 10
385.375
 20
31.7989
 30
0.0
 40
0
 41
0
  0
SEQEND
 8
0
  0
POLYLINE
  8
0
 62
     0
 66
     1
 10
0
 20
0
 30
0.0
 70
     1
 40
0
 41
0
  0
VERTEX
  8
0
 10
432.35
 20
21.3144
 30
0.0
 40
0
 41
0
  0
VERTEX
  8
0
 10
439.279
 20
25.3144
 30
0.0
 40
0
 41
0
  0
VERTEX
  8
0
 10
452.787
 20
1.91667
 30
0.0
 40
0
 41
0
  0
VERTEX
  8
0
 10
425.769
 20
1.91667
 30
0.0
 40
0
 41
0
  0
VERTEX
  8
0
 10
425.769
 20
9.91667
 30
0.0
 40
0
 41
0
  0
VERTEX
  8
0
 10
422.069
 20
9.91667
 30
0.0
 40
0
 41
0
  0
VERTEX
  8
0
 10
422.069
 20
1.91667
 30
0.0
 40
0
 41
0
  0
VERTEX
  8
0
 10
395.053
 20
1.91667
 30
0.0
 40
0
 41
0
  0
VERTEX
  8
0
 10
408.561
 20
25.3144
 30
0.0
 40
0
 41
0
  0
VERTEX
  8
0
 10
415.489
 20
21.3144
 30
0.0
 40
0
 41
0
  0
VERTEX
  8
0
 10
417.339
 20
24.5189
 30
0.0
 40
0
 41
0
  0
VERTEX
  8
0
 10
410.411
 20
28.5189
 30
0.0
 40
0
 41
0
  0
VERTEX
  8
0
 10
423.919
 20
51.9167
 30
0.0
 40
0
 41
0
  0
VERTEX
  8
0
 10
437.429
 20
28.5189
 30
0.0
 40
0
 41
0
  0
VERTEX
  8
0
 10
430.5
 20
24.5189
 30
0.0
 40
0
 41
0
  0
VERTEX
  8
0
 10
432.35
 20
21.3144
 30
0.0
 40
0
 41
0
  0
SEQEND
 8
0
  0
POLYLINE
  8
0
 62
     0
 66
     1
 10
0
 20
0
 30
0.0
 70
     1
 40
0
 41
0
  0
VERTEX
  8
0
 10
444.772
 20
31.7989
 30
0.0
 40
0
 41
0
  0
VERTEX
  8
0
 10
437.844
 20
27.7989
 30
0.0
 40
0
 41
0
  0
VERTEX
  8
0
 10
424.336
 20
51.1967
 30
0.0
 40
0
 41
0
  0
VERTEX
  8
0
 10
451.353
 20
51.1967
 30
0.0
 40
0
 41
0
  0
VERTEX
  8
0
 10
451.353
 20
43.1967
 30
0.0
 40
0
 41
0
  0
VERTEX
  8
0
 10
455.053
 20
43.1967
 30
0.0
 40
0
 41
0
  0
VERTEX
  8
0
 10
455.053
 20
51.1967
 30
0.0
 40
0
 41
0
  0
VERTEX
  8
0
 10
482.071
 20
51.1967
 30
0.0
 40
0
 41
0
  0
VERTEX
  8
0
 10
468.563
 20
27.7989
 30
0.0
 40
0
 41
0
  0
VERTEX
  8
0
 10
461.633
 20
31.7989
 30
0.0
 40
0
 41
0
  0
VERTEX
  8
0
 10
459.783
 20
28.5944
 30
0.0
 40
0
 41
0
  0
VERTEX
  8
0
 10
466.713
 20
24.5944
 30
0.0
 40
0
 41
0
  0
VERTEX
  8
0
 10
453.203
 20
1.19667
 30
0.0
 40
0
 41
0
  0
VERTEX
  8
0
 10
439.694
 20
24.5944
 30
0.0
 40
0
 41
0
  0
VERTEX
  8
0
 10
446.622
 20
28.5944
 30
0.0
 40
0
 41
0
  0
VERTEX
  8
0
 10
444.772
 20
31.7989
 30
0.0
 40
0
 41
0
  0
SEQEND
 8
0
  0
POLYLINE
  8
0
 62
     0
 66
     1
 10
0
 20
0
 30
0.0
 70
     1
 40
0
 41
0
  0
VERTEX
  8
0
 10
491.749
 20
21.3144
 30
0.0
 40
0
 41
0
  0
VERTEX
  8
0
 10
498.676
 20
25.3144
 30
0.0
 40
0
 41
0
  0
VERTEX
  8
0
 10
512.186
 20
1.91667
 30
0.0
 40
0
 41
0
  0
VERTEX
  8
0
 10
485.168
 20
1.91667
 30
0.0
 40
0
 41
0
  0
VERTEX
  8
0
 10
485.168
 20
9.91667
 30
0.0
 40
0
 41
0
  0
VERTEX
  8
0
 10
481.468
 20
9.91667
 30
0.0
 40
0
 41
0
  0
VERTEX
  8
0
 10
481.468
 20
1.91667
 30
0.0
 40
0
 41
0
  0
VERTEX
  8
0
 10
454.45
 20
1.91667
 30
0.0
 40
0
 41
0
  0
VERTEX
  8
0
 10
467.96
 20
25.3144
 30
0.0
 40
0
 41
0
  0
VERTEX
  8
0
 10
474.887
 20
21.3144
 30
0.0
 40
0
 41
0
  0
VERTEX
  8
0
 10
476.738
 20
24.5189
 30
0.0
 40
0
 41
0
  0
VERTEX
  8
0
 10
469.81
 20
28.5189
 30
0.0
 40
0
 41
0
  0
VERTEX
  8
0
 10
483.318
 20
51.9167
 30
0.0
 40
0
 41
0
  0
VERTEX
  8
0
 10
496.826
 20
28.5189
 30
0.0
 40
0
 41
0
  0
VERTEX
  8
0
 10
489.899
 20
24.5189
 30
0.0
 40
0
 41
0
  0
VERTEX
  8
0
 10
491.749
 20
21.3144
 30
0.0
 40
0
 41
0
  0
SEQEND
 8
0
  0
POLYLINE
  8
0
 62
     0
 66
     1
 10
0
 20
0
 30
0.0
 70
     1
 40
0
 41
0
  0
VERTEX
  8
0
 10
492.744
 20
43.5882
 30
0.0
 40
0
 41
0
  0
VERTEX
  8
0
 10
490.274
 20
51.1967
 30
0.0
 40
0
 41
0
  0
VERTEX
  8
0
 10
493.974
 20
51.1967
 30
0.0
 40
0
 41
0
  0
VERTEX
  8
0
 10
496.446
 20
43.5882
 30
0.0
 40
0
 41
0
  0
VERTEX
  8
0
 10
496.446
 20
35.5882
 30
0.0
 40
0
 41
0
  0
VERTEX
  8
0
 10
492.744
 20
35.5882
 30
0.0
 40
0
 41
0
  0
VERTEX
  8
0
 10
492.744
 20
43.5882
 30
0.0
 40
0
 41
0
  0
SEQEND
 8
0
  0
POLYLINE
  8
0
 62
     0
 66
     1
 10
0
 20
0
 30
0.0
 70
     1
 40
0
 41
0
  0
VERTEX
  8
0
 10
504.292
 20
27.1085
 30
0.0
 40
0
 41
0
  0
VERTEX
  8
0
 10
506.764
 20
19.5
 30
0.0
 40
0
 41
0
  0
VERTEX
  8
0
 10
503.064
 20
19.5
 30
0.0
 40
0
 41
0
  0
VERTEX
  8
0
 10
500.592
 20
27.1085
 30
0.0
 40
0
 41
0
  0
VERTEX
  8
0
 10
500.592
 20
35.1085
 30
0.0
 40
0
 41
0
  0
VERTEX
  8
0
 10
504.292
 20
35.1085
 30
0.0
 40
0
 41
0
  0
VERTEX
  8
0
 10
504.292
 20
27.1085
 30
0.0
 40
0
 41
0
  0
SEQEND
 8
0
  0
POLYLINE
  8
0
 62
     0
 66
     1
 10
0
 20
0
 30
0.0
 70
     1
 40
0
 41
0
  0
VERTEX
  8
0
 10
506.533
 20
41.7567
 30
0.0
 40
0
 41
0
  0
VERTEX
  8
0
 10
509.006
 20
34.1482
 30
0.0
 40
0
 41
0
  0
VERTEX
  8
0
 10
505.306
 20
34.1482
 30
0.0
 40
0
 41
0
  0
VERTEX
  8
0
 10
502.833
 20
41.7567
 30
0.0
 40
0
 41
0
  0
VERTEX
  8
0
 10
502.833
 20
49.7567
 30
0.0
 40
0
 41
0
  0
VERTEX
  8
0
 10
506.533
 20
49.7567
 30
0.0
 40
0
 41
0
  0
VERTEX
  8
0
 10
506.533
 20
41.7567
 30
0.0
 40
0
 41
0
  0
SEQEND
 8
0
  0
POLYLINE
  8
0
 62
     0
 66
     1
 10
0
 20
0
 30
0.0
 70
     1
 40
0
 41
0
  0
VERTEX
  8
0
 10
2.47211
 20
43.5882
 30
0.0
 40
0
 41
0
  0
VERTEX
  8
0
 10
0
 20
51.1967
 30
0.0
 40
0
 41
0
  0
VERTEX
  8
0
 10
3.69997
 20
51.1967
 30
0.0
 40
0
 41
0
  0
VERTEX
  8
0
 10
6.17215
 20
43.5882
 30
0.0
 40
0
 41
0
  0
VERTEX
  8
0
 10
6.17215
 20
35.5882
 30
0.0
 40
0
 41
0
  0
VERTEX
  8
0
 10
2.47211
 20
35.5882
 30
0.0
 40
0
 41
0
  0
VERTEX
  8
0
 10
2.47211
 20
43.5882
 30
0.0
 40
0
 41
0
  0
SEQEND
 8
0
  0
POLYLINE
  8
0
 62
     0
 66
     1
 10
0
 20
0
 30
0.0
 70
     1
 40
0
 41
0
  0
VERTEX
  8
0
 10
11.5495
 20
28.4426
 30
0.0
 40
0
 41
0
  0
VERTEX
  8
0
 10
3.94108
 20
25.9704
 30
0.0
 40
0
 41
0
  0
VERTEX
  8
0
 10
3.94108
 20
29.6704
 30
0.0
 40
0
 41
0
  0
VERTEX
  8
0
 10
11.5495
 20
32.1426
 30
0.0
 40
0
 41
0
  0
VERTEX
  8
0
 10
19.5496
 20
32.1426
 30
0.0
 40
0
 41
0
  0
VERTEX
  8
0
 10
19.5496
 20
28.4426
 30
0.0
 40
0
 41
0
  0
VERTEX
  8
0
 10
11.5495
 20
28.4426
 30
0.0
 40
0
 41
0
  0
SEQEND
 8
0
  0
POLYLINE
  8
0
 62
     0
 66
     1
 10
0
 20
0
 30
0.0
 70
     1
 40
0
 41
0
  0
VERTEX
  8
0
 10
16.3785
 20
35.4872
 30
0.0
 40
0
 41
0
  0
VERTEX
  8
0
 10
8.77012
 20
33.0151
 30
0.0
 40
0
 41
0
  0
VERTEX
  8
0
 10
8.77012
 20
36.7151
 30
0.0
 40
0
 41
0
  0
VERTEX
  8
0
 10
16.3785
 20
39.1872
 30
0.0
 40
0
 41
0
  0
VERTEX
  8
0
 10
24.3785
 20
39.1872
 30
0.0
 40
0
 41
0
  0
VERTEX
  8
0
 10
24.3785
 20
35.4872
 30
0.0
 40
0
 41
0
  0
VERTEX
  8
0
 10
16.3785
 20
35.4872
 30
0.0
 40
0
 41
0
  0
SEQEND
 8
0
  0
POLYLINE
  8
0
 62
     0
 66
     1
 10
0
 20
0
 30
0.0
 70
     1
 40
0
 41
0
  0
VERTEX
  8
0
 10
510.779
 20
23.3168
 30
0.0
 40
0
 41
0
  0
VERTEX
  8
0
 10
513.251
 20
15.7083
 30
0.0
 40
0
 41
0
  0
VERTEX
  8
0
 10
509.551
 20
15.7083
 30
0.0
 40
0
 41
0
  0
VERTEX
  8
0
 10
507.079
 20
23.3168
 30
0.0
 40
0
 41
0
  0
VERTEX
  8
0
 10
507.079
 20
31.3168
 30
0.0
 40
0
 41
0
  0
VERTEX
  8
0
 10
510.779
 20
31.3168
 30
0.0
 40
0
 41
0
  0
VERTEX
  8
0
 10
510.779
 20
23.3168
 30
0.0
 40
0
 41
0
  0
SEQEND
 8
0
  0
POLYLINE
  8
0
 62
     0
 66
     1
 10
0
 20
0
 30
0.0
 70
     1
 40
0
 41
0
  0
VERTEX
  8
0
 10
508.778
 20
43.5882
 30
0.0
 40
0
 41
0
  0
VERTEX
  8
0
 10
506.306
 20
51.1967
 30
0.0
 40
0
 41
0
  0
VERTEX
  8
0
 10
510.006
 20
51.1967
 30
0.0
 40
0
 41
0
  0
VERTEX
  8
0
 10
512.478
 20
43.5882
 30
0.0
 40
0
 41
0
  0
VERTEX
  8
0
 10
512.478
 20
35.5882
 30
0.0
 40
0
 41
0
  0
VERTEX
  8
0
 10
508.778
 20
35.5882
 30
0.0
 40
0
 41
0
  0
VERTEX
  8
0
 10
508.778
 20
43.5882
 30
0.0
 40
0
 41
0
  0
SEQEND
 8
0
  0
POLYLINE
  8
0
 62
     0
 66
     1
 10
0
 20
0
 30
0.0
 70
     1
 40
0
 41
0
  0
VERTEX
  8
0
 10
516.083
 20
25.0547
 30
0.0
 40
0
 41
0
  0
VERTEX
  8
0
 10
518.556
 20
17.4463
 30
0.0
 40
0
 41
0
  0
VERTEX
  8
0
 10
514.856
 20
17.4463
 30
0.0
 40
0
 41
0
  0
VERTEX
  8
0
 10
512.383
 20
25.0547
 30
0.0
 40
0
 41
0
  0
VERTEX
  8
0
 10
512.383
 20
33.0547
 30
0.0
 40
0
 41
0
  0
VERTEX
  8
0
 10
516.083
 20
33.0547
 30
0.0
 40
0
 41
0
  0
VERTEX
  8
0
 10
516.083
 20
25.0547
 30
0.0
 40
0
 41
0
  0
SEQEND
 8
0
  0
POLYLINE
  8
0
 62
     0
 66
     1
 10
0
 20
0
 30
0.0
 70
     1
 40
0
 41
0
  0
VERTEX
  8
0
 10
516.85
 20
41.7567
 30
0.0
 40
0
 41
0
  0
VERTEX
  8
0
 10
519.322
 20
34.1482
 30
0.0
 40
0
 41
0
  0
VERTEX
  8
0
 10
515.622
 20
34.1482
 30
0.0
 40
0
 41
0
  0
VERTEX
  8
0
 10
513.15
 20
41.7567
 30
0.0
 40
0
 41
0
  0
VERTEX
  8
0
 10
513.15
 20
49.7567
 30
0.0
 40
0
 41
0
  0
VERTEX
  8
0
 10
516.85
 20
49.7567
 30
0.0
 40
0
 41
0
  0
VERTEX
  8
0
 10
516.85
 20
41.7567
 30
0.0
 40
0
 41
0
  0
SEQEND
 8
0
  0
ENDSEC
  0
EOF
